<svg xmlns="http://www.w3.org/2000/svg" xmlns:xlink="http://www.w3.org/1999/xlink" width="500" zoomAndPan="magnify" viewBox="0 0 375 374.999991" height="500" preserveAspectRatio="xMidYMid meet" version="1.0"><defs><g/><clipPath id="aeb16bb06e"><path d="M 12.332031 12.777344 L 357.78125 12.777344 L 357.78125 358.226562 L 12.332031 358.226562 Z M 12.332031 12.777344 " clip-rule="nonzero"/></clipPath><clipPath id="317553d6b4"><path d="M 185.054688 12.777344 C 89.664062 12.777344 12.332031 90.105469 12.332031 185.5 C 12.332031 280.894531 89.664062 358.226562 185.054688 358.226562 C 280.449219 358.226562 357.78125 280.894531 357.78125 185.5 C 357.78125 90.105469 280.449219 12.777344 185.054688 12.777344 Z M 185.054688 12.777344 " clip-rule="nonzero"/></clipPath><clipPath id="9f2475564f"><path d="M 0.332031 0.777344 L 345.78125 0.777344 L 345.78125 346.226562 L 0.332031 346.226562 Z M 0.332031 0.777344 " clip-rule="nonzero"/></clipPath><clipPath id="c0fca0baff"><path d="M 173.054688 0.777344 C 77.664062 0.777344 0.332031 78.105469 0.332031 173.5 C 0.332031 268.894531 77.664062 346.226562 173.054688 346.226562 C 268.449219 346.226562 345.78125 268.894531 345.78125 173.5 C 345.78125 78.105469 268.449219 0.777344 173.054688 0.777344 Z M 173.054688 0.777344 " clip-rule="nonzero"/></clipPath><clipPath id="8db235a1dc"><rect x="0" width="346" y="0" height="347"/></clipPath><clipPath id="bcb7da0488"><rect x="0" width="218" y="0" height="103"/></clipPath><clipPath id="1bf77beb2c"><rect x="0" width="238" y="0" height="58"/></clipPath></defs><g clip-path="url(#aeb16bb06e)"><g clip-path="url(#317553d6b4)"><g transform="matrix(1, 0, 0, 1, 12, 12)"><g clip-path="url(#8db235a1dc)"><g clip-path="url(#9f2475564f)"><g clip-path="url(#c0fca0baff)"><path fill="#141417" d="M 0.332031 0.777344 L 345.78125 0.777344 L 345.78125 346.226562 L 0.332031 346.226562 Z M 0.332031 0.777344 " fill-opacity="1" fill-rule="nonzero"/></g></g></g></g></g></g><g transform="matrix(1, 0, 0, 1, 81, 166)"><g clip-path="url(#bcb7da0488)"><g fill="#e7e3dd" fill-opacity="1"><g transform="translate(1.596458, 73.250509)"><g><path d="M 19.875 0.765625 C 17.132812 0.765625 14.660156 0.335938 12.453125 -0.515625 C 10.242188 -1.367188 8.382812 -2.597656 6.875 -4.203125 C 5.375 -5.816406 4.21875 -7.71875 3.40625 -9.90625 C 2.59375 -12.09375 2.1875 -14.472656 2.1875 -17.046875 C 2.1875 -20.390625 2.859375 -23.304688 4.203125 -25.796875 C 5.554688 -28.285156 7.425781 -30.238281 9.8125 -31.65625 C 12.195312 -33.070312 14.929688 -33.78125 18.015625 -33.78125 C 19.347656 -33.78125 20.601562 -33.609375 21.78125 -33.265625 C 22.957031 -32.921875 24.023438 -32.414062 24.984375 -31.75 C 25.953125 -31.082031 26.757812 -30.300781 27.40625 -29.40625 L 27.609375 -29.40625 L 27.609375 -46.96875 L 37.578125 -46.96875 L 37.578125 -17.109375 C 37.578125 -13.503906 36.847656 -10.351562 35.390625 -7.65625 C 33.929688 -4.957031 31.878906 -2.878906 29.234375 -1.421875 C 26.597656 0.0351562 23.476562 0.765625 19.875 0.765625 Z M 19.875 -7.84375 C 21.425781 -7.84375 22.769531 -8.21875 23.90625 -8.96875 C 25.039062 -9.726562 25.90625 -10.757812 26.5 -12.0625 C 27.101562 -13.375 27.40625 -14.84375 27.40625 -16.46875 C 27.40625 -18.101562 27.101562 -19.5625 26.5 -20.84375 C 25.90625 -22.132812 25.039062 -23.15625 23.90625 -23.90625 C 22.769531 -24.65625 21.425781 -25.03125 19.875 -25.03125 C 18.375 -25.03125 17.046875 -24.65625 15.890625 -23.90625 C 14.734375 -23.15625 13.851562 -22.132812 13.25 -20.84375 C 12.65625 -19.5625 12.359375 -18.101562 12.359375 -16.46875 C 12.359375 -14.84375 12.65625 -13.375 13.25 -12.0625 C 13.851562 -10.757812 14.734375 -9.726562 15.890625 -8.96875 C 17.046875 -8.21875 18.375 -7.84375 19.875 -7.84375 Z M 19.875 -7.84375 "/></g></g></g><g fill="#e7e3dd" fill-opacity="1"><g transform="translate(42.639886, 73.250509)"><g><path d="M 20.078125 0.765625 C 16.679688 0.765625 13.632812 0.015625 10.9375 -1.484375 C 8.238281 -2.984375 6.101562 -5.039062 4.53125 -7.65625 C 2.96875 -10.269531 2.1875 -13.207031 2.1875 -16.46875 C 2.1875 -19.769531 2.96875 -22.71875 4.53125 -25.3125 C 6.101562 -27.914062 8.238281 -29.976562 10.9375 -31.5 C 13.632812 -33.019531 16.679688 -33.78125 20.078125 -33.78125 C 23.460938 -33.78125 26.492188 -33.019531 29.171875 -31.5 C 31.859375 -29.976562 33.984375 -27.914062 35.546875 -25.3125 C 37.109375 -22.71875 37.890625 -19.769531 37.890625 -16.46875 C 37.890625 -13.207031 37.109375 -10.269531 35.546875 -7.65625 C 33.984375 -5.039062 31.847656 -2.984375 29.140625 -1.484375 C 26.441406 0.015625 23.421875 0.765625 20.078125 0.765625 Z M 20.078125 -7.921875 C 21.660156 -7.921875 23.03125 -8.304688 24.1875 -9.078125 C 25.351562 -9.847656 26.253906 -10.875 26.890625 -12.15625 C 27.535156 -13.445312 27.859375 -14.90625 27.859375 -16.53125 C 27.859375 -18.125 27.535156 -19.5625 26.890625 -20.84375 C 26.253906 -22.132812 25.351562 -23.164062 24.1875 -23.9375 C 23.03125 -24.707031 21.660156 -25.09375 20.078125 -25.09375 C 18.484375 -25.09375 17.097656 -24.707031 15.921875 -23.9375 C 14.742188 -23.164062 13.832031 -22.132812 13.1875 -20.84375 C 12.539062 -19.5625 12.21875 -18.125 12.21875 -16.53125 C 12.21875 -14.90625 12.539062 -13.445312 13.1875 -12.15625 C 13.832031 -10.875 14.742188 -9.847656 15.921875 -9.078125 C 17.097656 -8.304688 18.484375 -7.921875 20.078125 -7.921875 Z M 20.078125 -7.921875 "/></g></g></g><g fill="#e7e3dd" fill-opacity="1"><g transform="translate(82.718353, 73.250509)"><g><path d="M 19.953125 0 C 16.515625 0 13.46875 -0.71875 10.8125 -2.15625 C 8.15625 -3.59375 6.050781 -5.539062 4.5 -8 C 2.957031 -10.46875 2.1875 -13.289062 2.1875 -16.46875 C 2.1875 -19.644531 2.957031 -22.46875 4.5 -24.9375 C 6.050781 -27.40625 8.15625 -29.367188 10.8125 -30.828125 C 13.46875 -32.285156 16.515625 -33.015625 19.953125 -33.015625 L 24.90625 -33.015625 L 24.90625 -24.578125 L 20.328125 -24.578125 C 18.660156 -24.578125 17.222656 -24.222656 16.015625 -23.515625 C 14.816406 -22.804688 13.882812 -21.835938 13.21875 -20.609375 C 12.550781 -19.390625 12.21875 -18.007812 12.21875 -16.46875 C 12.21875 -14.925781 12.550781 -13.539062 13.21875 -12.3125 C 13.882812 -11.09375 14.816406 -10.128906 16.015625 -9.421875 C 17.222656 -8.710938 18.660156 -8.359375 20.328125 -8.359375 L 24.90625 -8.359375 L 24.90625 0 Z M 19.953125 0 "/></g></g></g><g fill="#e7e3dd" fill-opacity="1"><g transform="translate(109.415881, 73.250509)"><g><path d="M 15.828125 0 C 12.785156 0 10.40625 -0.867188 8.6875 -2.609375 C 6.96875 -4.347656 6.109375 -6.695312 6.109375 -9.65625 L 6.109375 -41.046875 L 16.15625 -41.046875 L 16.15625 -10.234375 C 16.15625 -9.710938 16.335938 -9.269531 16.703125 -8.90625 C 17.066406 -8.539062 17.503906 -8.359375 18.015625 -8.359375 L 25.21875 -8.359375 L 25.21875 0 Z M 0.703125 -24.84375 L 0.703125 -33.015625 L 25.21875 -33.015625 L 25.21875 -24.84375 Z M 0.703125 -24.84375 "/></g></g></g><g fill="#e7e3dd" fill-opacity="1"><g transform="translate(135.855845, 73.250509)"><g><path d="M 20.078125 0.765625 C 16.679688 0.765625 13.632812 0.015625 10.9375 -1.484375 C 8.238281 -2.984375 6.101562 -5.039062 4.53125 -7.65625 C 2.96875 -10.269531 2.1875 -13.207031 2.1875 -16.46875 C 2.1875 -19.769531 2.96875 -22.71875 4.53125 -25.3125 C 6.101562 -27.914062 8.238281 -29.976562 10.9375 -31.5 C 13.632812 -33.019531 16.679688 -33.78125 20.078125 -33.78125 C 23.460938 -33.78125 26.492188 -33.019531 29.171875 -31.5 C 31.859375 -29.976562 33.984375 -27.914062 35.546875 -25.3125 C 37.109375 -22.71875 37.890625 -19.769531 37.890625 -16.46875 C 37.890625 -13.207031 37.109375 -10.269531 35.546875 -7.65625 C 33.984375 -5.039062 31.847656 -2.984375 29.140625 -1.484375 C 26.441406 0.015625 23.421875 0.765625 20.078125 0.765625 Z M 20.078125 -7.921875 C 21.660156 -7.921875 23.03125 -8.304688 24.1875 -9.078125 C 25.351562 -9.847656 26.253906 -10.875 26.890625 -12.15625 C 27.535156 -13.445312 27.859375 -14.90625 27.859375 -16.53125 C 27.859375 -18.125 27.535156 -19.5625 26.890625 -20.84375 C 26.253906 -22.132812 25.351562 -23.164062 24.1875 -23.9375 C 23.03125 -24.707031 21.660156 -25.09375 20.078125 -25.09375 C 18.484375 -25.09375 17.097656 -24.707031 15.921875 -23.9375 C 14.742188 -23.164062 13.832031 -22.132812 13.1875 -20.84375 C 12.539062 -19.5625 12.21875 -18.125 12.21875 -16.53125 C 12.21875 -14.90625 12.539062 -13.445312 13.1875 -12.15625 C 13.832031 -10.875 14.742188 -9.847656 15.921875 -9.078125 C 17.097656 -8.304688 18.484375 -7.921875 20.078125 -7.921875 Z M 20.078125 -7.921875 "/></g></g></g><g fill="#e7e3dd" fill-opacity="1"><g transform="translate(175.934312, 73.250509)"><g><path d="M 3.46875 0 L 3.46875 -23.296875 C 3.46875 -26.296875 4.328125 -28.648438 6.046875 -30.359375 C 7.765625 -32.078125 10.144531 -32.9375 13.1875 -32.9375 L 22.78125 -32.9375 L 22.78125 -24.84375 L 15.640625 -24.84375 C 15.035156 -24.84375 14.519531 -24.632812 14.09375 -24.21875 C 13.664062 -23.8125 13.453125 -23.289062 13.453125 -22.65625 L 13.453125 0 Z M 3.46875 0 "/></g></g></g><g fill="#e7e3dd" fill-opacity="1"><g transform="translate(199.415276, 73.250509)"><g><path d="M 8.625 0.765625 C 6.90625 0.765625 5.429688 0.15625 4.203125 -1.0625 C 2.984375 -2.28125 2.375 -3.726562 2.375 -5.40625 C 2.375 -7.125 2.984375 -8.59375 4.203125 -9.8125 C 5.429688 -11.03125 6.90625 -11.640625 8.625 -11.640625 C 10.289062 -11.640625 11.734375 -11.03125 12.953125 -9.8125 C 14.179688 -8.59375 14.796875 -7.125 14.796875 -5.40625 C 14.796875 -4.289062 14.515625 -3.257812 13.953125 -2.3125 C 13.398438 -1.375 12.660156 -0.625 11.734375 -0.0625 C 10.816406 0.488281 9.78125 0.765625 8.625 0.765625 Z M 8.625 0.765625 "/></g></g></g></g></g><g transform="matrix(1, 0, 0, 1, 63, 134)"><g clip-path="url(#1bf77beb2c)"><g fill="#ffffff" fill-opacity="1"><g transform="translate(0.423084, 45.23057)"><g><path d="M 19.890625 1.0625 C 17.265625 1.0625 14.960938 0.789062 12.984375 0.25 C 11.003906 -0.289062 9.3125 -1.03125 7.90625 -1.96875 C 6.507812 -2.914062 5.367188 -3.992188 4.484375 -5.203125 C 3.609375 -6.421875 2.96875 -7.71875 2.5625 -9.09375 C 2.15625 -10.46875 1.953125 -11.847656 1.953125 -13.234375 L 11.90625 -13.234375 C 11.90625 -11.453125 12.59375 -10.015625 13.96875 -8.921875 C 15.351562 -7.828125 17.316406 -7.28125 19.859375 -7.28125 C 22.640625 -7.28125 24.628906 -7.6875 25.828125 -8.5 C 27.035156 -9.320312 27.640625 -10.539062 27.640625 -12.15625 C 27.640625 -13.144531 27.3125 -13.960938 26.65625 -14.609375 C 26 -15.253906 25.03125 -15.804688 23.75 -16.265625 C 22.46875 -16.734375 20.910156 -17.175781 19.078125 -17.59375 C 17.628906 -17.945312 16.15625 -18.351562 14.65625 -18.8125 C 13.15625 -19.28125 11.707031 -19.851562 10.3125 -20.53125 C 8.925781 -21.207031 7.679688 -22.023438 6.578125 -22.984375 C 5.484375 -23.953125 4.613281 -25.113281 3.96875 -26.46875 C 3.332031 -27.820312 3.015625 -29.398438 3.015625 -31.203125 C 3.015625 -33.691406 3.617188 -35.878906 4.828125 -37.765625 C 6.046875 -39.648438 7.875 -41.125 10.3125 -42.1875 C 12.757812 -43.257812 15.828125 -43.796875 19.515625 -43.796875 C 23.242188 -43.796875 26.347656 -43.238281 28.828125 -42.125 C 31.304688 -41.019531 33.160156 -39.460938 34.390625 -37.453125 C 35.628906 -35.441406 36.25 -33.070312 36.25 -30.34375 L 26.296875 -30.34375 C 26.296875 -31.144531 26.082031 -31.910156 25.65625 -32.640625 C 25.226562 -33.378906 24.507812 -33.976562 23.5 -34.4375 C 22.5 -34.894531 21.128906 -35.125 19.390625 -35.125 C 17.628906 -35.125 16.285156 -34.925781 15.359375 -34.53125 C 14.441406 -34.132812 13.8125 -33.628906 13.46875 -33.015625 C 13.132812 -32.410156 12.96875 -31.785156 12.96875 -31.140625 C 12.96875 -29.773438 13.722656 -28.695312 15.234375 -27.90625 C 16.742188 -27.125 19.175781 -26.421875 22.53125 -25.796875 C 24.664062 -25.359375 26.65625 -24.785156 28.5 -24.078125 C 30.34375 -23.378906 31.953125 -22.492188 33.328125 -21.421875 C 34.710938 -20.359375 35.789062 -19.0625 36.5625 -17.53125 C 37.34375 -16 37.734375 -14.195312 37.734375 -12.125 C 37.734375 -9.28125 36.976562 -6.878906 35.46875 -4.921875 C 33.957031 -2.960938 31.867188 -1.472656 29.203125 -0.453125 C 26.535156 0.554688 23.429688 1.0625 19.890625 1.0625 Z M 19.890625 1.0625 "/></g></g></g><g fill="#ffffff" fill-opacity="1"><g transform="translate(39.907793, 45.23057)"><g><path d="M 25.109375 0 L 17.90625 0 C 16.945312 0 15.945312 -0.0820312 14.90625 -0.25 C 13.875 -0.414062 12.863281 -0.738281 11.875 -1.21875 C 10.894531 -1.707031 10.007812 -2.414062 9.21875 -3.34375 C 8.4375 -4.28125 7.804688 -5.503906 7.328125 -7.015625 C 6.859375 -8.535156 6.625 -10.425781 6.625 -12.6875 L 6.625 -24.3125 L 0.375 -24.3125 L 0.375 -32.546875 L 6.625 -32.546875 L 6.625 -41.9375 L 16.3125 -42 L 16.3125 -32.546875 L 25.109375 -32.546875 L 25.109375 -24.3125 L 16.3125 -24.3125 L 16.3125 -12.25 C 16.3125 -10.65625 16.664062 -9.546875 17.375 -8.921875 C 18.082031 -8.296875 18.953125 -7.984375 19.984375 -7.984375 L 25.109375 -7.984375 Z M 25.109375 0 "/></g></g></g><g fill="#ffffff" fill-opacity="1"><g transform="translate(66.639288, 45.23057)"><g><path d="M 16.84375 1.0625 C 14.664062 1.0625 12.660156 0.613281 10.828125 -0.28125 C 8.992188 -1.1875 7.40625 -2.429688 6.0625 -4.015625 C 4.71875 -5.609375 3.679688 -7.453125 2.953125 -9.546875 C 2.222656 -11.640625 1.859375 -13.882812 1.859375 -16.28125 C 1.859375 -18.644531 2.226562 -20.875 2.96875 -22.96875 C 3.707031 -25.0625 4.75 -26.90625 6.09375 -28.5 C 7.4375 -30.09375 9.019531 -31.335938 10.84375 -32.234375 C 12.664062 -33.128906 14.644531 -33.578125 16.78125 -33.578125 C 19.1875 -33.578125 21.316406 -33.128906 23.171875 -32.234375 C 25.023438 -31.335938 26.441406 -30.050781 27.421875 -28.375 L 27.421875 -32.546875 L 36.609375 -32.546875 L 36.609375 0 L 27.390625 0 L 27.390625 -4.109375 C 26.410156 -2.460938 25 -1.1875 23.15625 -0.28125 C 21.3125 0.613281 19.207031 1.0625 16.84375 1.0625 Z M 19.203125 -7.859375 C 20.679688 -7.859375 22.007812 -8.226562 23.1875 -8.96875 C 24.363281 -9.707031 25.296875 -10.710938 25.984375 -11.984375 C 26.671875 -13.253906 27.015625 -14.6875 27.015625 -16.28125 C 27.015625 -17.84375 26.671875 -19.257812 25.984375 -20.53125 C 25.296875 -21.800781 24.359375 -22.8125 23.171875 -23.5625 C 21.984375 -24.3125 20.671875 -24.6875 19.234375 -24.6875 C 17.804688 -24.6875 16.5 -24.351562 15.3125 -23.6875 C 14.132812 -23.019531 13.191406 -22.054688 12.484375 -20.796875 C 11.785156 -19.535156 11.4375 -18.03125 11.4375 -16.28125 C 11.4375 -14.4375 11.796875 -12.890625 12.515625 -11.640625 C 13.242188 -10.390625 14.195312 -9.445312 15.375 -8.8125 C 16.5625 -8.175781 17.835938 -7.859375 19.203125 -7.859375 Z M 19.203125 -7.859375 "/></g></g></g><g fill="#ffffff" fill-opacity="1"><g transform="translate(106.972117, 45.23057)"><g><path d="M 13.453125 0 L 3.734375 0 L 3.734375 -32.546875 L 13 -32.546875 L 13 -27.96875 C 13.738281 -29.320312 14.726562 -30.421875 15.96875 -31.265625 C 17.21875 -32.117188 18.796875 -32.546875 20.703125 -32.546875 L 24.46875 -32.546875 L 24.46875 -24.3125 L 21.234375 -24.3125 C 18.804688 -24.3125 16.898438 -23.507812 15.515625 -21.90625 C 14.140625 -20.3125 13.453125 -18.003906 13.453125 -14.984375 Z M 13.453125 0 "/></g></g></g><g fill="#ffffff" fill-opacity="1"><g transform="translate(132.258666, 45.23057)"><g><path d="M 25.109375 0 L 17.90625 0 C 16.945312 0 15.945312 -0.0820312 14.90625 -0.25 C 13.875 -0.414062 12.863281 -0.738281 11.875 -1.21875 C 10.894531 -1.707031 10.007812 -2.414062 9.21875 -3.34375 C 8.4375 -4.28125 7.804688 -5.503906 7.328125 -7.015625 C 6.859375 -8.535156 6.625 -10.425781 6.625 -12.6875 L 6.625 -24.3125 L 0.375 -24.3125 L 0.375 -32.546875 L 6.625 -32.546875 L 6.625 -41.9375 L 16.3125 -42 L 16.3125 -32.546875 L 25.109375 -32.546875 L 25.109375 -24.3125 L 16.3125 -24.3125 L 16.3125 -12.25 C 16.3125 -10.65625 16.664062 -9.546875 17.375 -8.921875 C 18.082031 -8.296875 18.953125 -7.984375 19.984375 -7.984375 L 25.109375 -7.984375 Z M 25.109375 0 "/></g></g></g><g fill="#ffffff" fill-opacity="1"><g transform="translate(158.99016, 45.23057)"><g><path d="M 18.96875 1.03125 C 16.789062 1.03125 14.75 0.738281 12.84375 0.15625 C 10.9375 -0.425781 9.265625 -1.359375 7.828125 -2.640625 C 6.398438 -3.921875 5.28125 -5.59375 4.46875 -7.65625 C 3.664062 -9.71875 3.265625 -12.222656 3.265625 -15.171875 L 3.265625 -32.546875 L 12.875 -32.546875 L 12.875 -15.484375 C 12.875 -13.078125 13.359375 -11.207031 14.328125 -9.875 C 15.304688 -8.550781 16.851562 -7.890625 18.96875 -7.890625 C 21.15625 -7.890625 22.722656 -8.566406 23.671875 -9.921875 C 24.628906 -11.285156 25.109375 -13.140625 25.109375 -15.484375 L 25.109375 -32.546875 L 34.6875 -32.546875 L 34.6875 -15.171875 C 34.6875 -12.222656 34.28125 -9.71875 33.46875 -7.65625 C 32.664062 -5.59375 31.546875 -3.921875 30.109375 -2.640625 C 28.679688 -1.359375 27.015625 -0.425781 25.109375 0.15625 C 23.203125 0.738281 21.15625 1.03125 18.96875 1.03125 Z M 18.96875 1.03125 "/></g></g></g><g fill="#ffffff" fill-opacity="1"><g transform="translate(196.9671, 45.23057)"><g><path d="M 13.421875 11.125 L 3.734375 11.125 L 3.734375 -32.546875 L 12.9375 -32.546875 L 12.9375 -28.4375 C 14.132812 -30.132812 15.609375 -31.410156 17.359375 -32.265625 C 19.109375 -33.117188 20.925781 -33.546875 22.8125 -33.546875 C 25.132812 -33.546875 27.257812 -33.097656 29.1875 -32.203125 C 31.113281 -31.304688 32.765625 -30.0625 34.140625 -28.46875 C 35.523438 -26.875 36.59375 -25.035156 37.34375 -22.953125 C 38.101562 -20.867188 38.484375 -18.644531 38.484375 -16.28125 C 38.484375 -13.882812 38.101562 -11.640625 37.34375 -9.546875 C 36.59375 -7.453125 35.519531 -5.609375 34.125 -4.015625 C 32.738281 -2.429688 31.097656 -1.1875 29.203125 -0.28125 C 27.304688 0.613281 25.226562 1.0625 22.96875 1.0625 C 20.875 1.0625 18.984375 0.601562 17.296875 -0.3125 C 15.609375 -1.238281 14.253906 -2.421875 13.234375 -3.859375 L 13.421875 0.0625 Z M 21.140625 -7.828125 C 22.523438 -7.828125 23.804688 -8.148438 24.984375 -8.796875 C 26.171875 -9.441406 27.125 -10.394531 27.84375 -11.65625 C 28.570312 -12.914062 28.9375 -14.457031 28.9375 -16.28125 C 28.9375 -18.03125 28.578125 -19.535156 27.859375 -20.796875 C 27.148438 -22.054688 26.203125 -23.019531 25.015625 -23.6875 C 23.835938 -24.351562 22.523438 -24.6875 21.078125 -24.6875 C 19.648438 -24.6875 18.34375 -24.316406 17.15625 -23.578125 C 15.976562 -22.835938 15.046875 -21.828125 14.359375 -20.546875 C 13.671875 -19.265625 13.328125 -17.84375 13.328125 -16.28125 C 13.328125 -14.601562 13.6875 -13.128906 14.40625 -11.859375 C 15.125 -10.585938 16.082031 -9.597656 17.28125 -8.890625 C 18.476562 -8.179688 19.765625 -7.828125 21.140625 -7.828125 Z M 21.140625 -7.828125 "/></g></g></g></g></g></svg>